<svg xmlns="http://www.w3.org/2000/svg" viewBox="0 0 64 64">
  <defs>
    <radialGradient id="bg" cx="35%" cy="30%" r="80%"><stop offset="0" stop-color="#1c1c22"/><stop offset="1" stop-color="#08080a"/></radialGradient>
    <linearGradient id="au" gradientUnits="userSpaceOnUse" x1="10" y1="8" x2="54" y2="58"><stop offset="0" stop-color="#e9d4a0"/><stop offset=".5" stop-color="#c4a468"/><stop offset="1" stop-color="#8f7443"/></linearGradient>
    <linearGradient id="sh" x1="0" y1="0" x2="0" y2="1"><stop offset="0" stop-color="#17171c"/><stop offset="1" stop-color="#0b0b0e"/></linearGradient>
  </defs>
  <rect width="64" height="64" rx="14" fill="url(#bg)"/>
  <rect x="1.5" y="1.5" width="61" height="61" rx="12.5" fill="none" stroke="url(#au)" stroke-opacity=".35" stroke-width="1"/>
  <path d="M32 9 L50 14.5 V33 C50 44 42 51.5 32 56 C22 51.5 14 44 14 33 V14.5 Z" fill="url(#sh)" stroke="url(#au)" stroke-width="1.6" stroke-linejoin="round"/>
  <path d="M32 12.2 L47.2 16.9 V33 C47.2 42.3 40.6 48.8 32 52.9 C23.4 48.8 16.8 42.3 16.8 33 V16.9 Z" fill="none" stroke="url(#au)" stroke-opacity=".45" stroke-width=".6"/>
  <path d="M28 21.5 V44" fill="none" stroke="url(#au)" stroke-width="2.6"/>
  <path d="M28 21.5 H36 C41.2 21.5 44.2 24.6 44.2 29.2 C44.2 33.8 41.2 36.9 36 36.9 H28" fill="none" stroke="url(#au)" stroke-width="2.6" stroke-linejoin="round"/>
  <path d="M24.4 21.5 H31.6 M24.4 44 H31.6" fill="none" stroke="url(#au)" stroke-width="1.5"/>
  <circle cx="33" cy="48.4" r="1" fill="url(#au)"/>
</svg>
